<svg xmlns="http://www.w3.org/2000/svg" version="1.1" xmlns:xlink="http://www.w3.org/1999/xlink" xmlns:svgjs="http://svgjs.dev/svgjs" viewBox="0 0 800 800" opacity="0.45" width="800" height="800"><g stroke-width="0.5" stroke="hsla(0, 0%, 0%, 1.00)" fill="none"><rect width="160" height="133.33333333333334" x="0" y="0"></rect><rect width="160" height="133.33333333333334" x="160" y="0"></rect><rect width="160" height="133.33333333333334" x="320" y="0"></rect><rect width="160" height="133.33333333333334" x="480" y="0"></rect><rect width="160" height="133.33333333333334" x="640" y="0"></rect><rect width="160" height="133.33333333333334" x="800" y="0"></rect><rect width="160" height="133.33333333333334" x="0" y="133.33333333333334"></rect><rect width="160" height="133.33333333333334" x="160" y="133.33333333333334"></rect><rect width="160" height="133.33333333333334" x="320" y="133.33333333333334"></rect><rect width="160" height="133.33333333333334" x="480" y="133.33333333333334"></rect><rect width="160" height="133.33333333333334" x="640" y="133.33333333333334"></rect><rect width="160" height="133.33333333333334" x="800" y="133.33333333333334"></rect><rect width="160" height="133.33333333333334" x="0" y="266.6666666666667"></rect><rect width="160" height="133.33333333333334" x="160" y="266.6666666666667"></rect><rect width="160" height="133.33333333333334" x="320" y="266.6666666666667"></rect><rect width="160" height="133.33333333333334" x="480" y="266.6666666666667"></rect><rect width="160" height="133.33333333333334" x="640" y="266.6666666666667"></rect><rect width="160" height="133.33333333333334" x="800" y="266.6666666666667"></rect><rect width="160" height="133.33333333333334" x="0" y="400"></rect><rect width="160" height="133.33333333333334" x="160" y="400"></rect><rect width="160" height="133.33333333333334" x="320" y="400"></rect><rect width="160" height="133.33333333333334" x="480" y="400"></rect><rect width="160" height="133.33333333333334" x="640" y="400"></rect><rect width="160" height="133.33333333333334" x="800" y="400"></rect><rect width="160" height="133.33333333333334" x="0" y="533.3333333333334"></rect><rect width="160" height="133.33333333333334" x="160" y="533.3333333333334"></rect><rect width="160" height="133.33333333333334" x="320" y="533.3333333333334"></rect><rect width="160" height="133.33333333333334" x="480" y="533.3333333333334"></rect><rect width="160" height="133.33333333333334" x="640" y="533.3333333333334"></rect><rect width="160" height="133.33333333333334" x="800" y="533.3333333333334"></rect><rect width="160" height="133.33333333333334" x="0" y="666.6666666666667"></rect><rect width="160" height="133.33333333333334" x="160" y="666.6666666666667"></rect><rect width="160" height="133.33333333333334" x="320" y="666.6666666666667"></rect><rect width="160" height="133.33333333333334" x="480" y="666.6666666666667"></rect><rect width="160" height="133.33333333333334" x="640" y="666.6666666666667"></rect><rect width="160" height="133.33333333333334" x="800" y="666.6666666666667"></rect><rect width="160" height="133.33333333333334" x="0" y="800.0000000000001"></rect><rect width="160" height="133.33333333333334" x="160" y="800.0000000000001"></rect><rect width="160" height="133.33333333333334" x="320" y="800.0000000000001"></rect><rect width="160" height="133.33333333333334" x="480" y="800.0000000000001"></rect><rect width="160" height="133.33333333333334" x="640" y="800.0000000000001"></rect><rect width="160" height="133.33333333333334" x="800" y="800.0000000000001"></rect></g></svg>